<svg width="36" height="35" viewBox="0 0 36 35" fill="none" xmlns="http://www.w3.org/2000/svg">
<g filter="url(#filter0_d_738_746)">
<path d="M21.125 11.5625H5.5C4.9875 11.5625 4.5625 11.1375 4.5625 10.625C4.5625 10.1125 4.9875 9.6875 5.5 9.6875H21.125C21.6375 9.6875 22.0625 10.1125 22.0625 10.625C22.0625 11.1375 21.6375 11.5625 21.125 11.5625Z" fill="#0030A8"/>
<path d="M13 21.5625H10.5C9.9875 21.5625 9.5625 21.1375 9.5625 20.625C9.5625 20.1125 9.9875 19.6875 10.5 19.6875H13C13.5125 19.6875 13.9375 20.1125 13.9375 20.625C13.9375 21.1375 13.5125 21.5625 13 21.5625Z" fill="#0030A8"/>
<path d="M21.125 21.5625H16.125C15.6125 21.5625 15.1875 21.1375 15.1875 20.625C15.1875 20.1125 15.6125 19.6875 16.125 19.6875H21.125C21.6375 19.6875 22.0625 20.1125 22.0625 20.625C22.0625 21.1375 21.6375 21.5625 21.125 21.5625Z" fill="#0030A8"/>
<path d="M24.95 26.5625H11.05C6.075 26.5625 4.5625 25.0625 4.5625 20.1375V9.8625C4.5625 4.9375 6.075 3.4375 11.05 3.4375H21.125C21.6375 3.4375 22.0625 3.8625 22.0625 4.375C22.0625 4.8875 21.6375 5.3125 21.125 5.3125H11.05C7.125 5.3125 6.4375 5.9875 6.4375 9.8625V20.125C6.4375 24 7.125 24.675 11.05 24.675H24.9375C28.8625 24.675 29.55 24 29.55 20.125V17.525C29.55 17.0125 29.975 16.5875 30.4875 16.5875C31 16.5875 31.425 17.0125 31.425 17.525V20.125C31.4375 25.0625 29.925 26.5625 24.95 26.5625Z" fill="#0030A8"/>
<path d="M28 12.8125C27.875 12.8125 27.7625 12.7875 27.6375 12.7375C27.2875 12.5875 27.0625 12.25 27.0625 11.875V4.375C27.0625 3.8625 27.4875 3.4375 28 3.4375C28.5125 3.4375 28.9375 3.8625 28.9375 4.375V9.6125L29.8375 8.7125C30.2 8.35 30.8 8.35 31.1625 8.7125C31.525 9.075 31.525 9.675 31.1625 10.0375L28.6625 12.5375C28.4875 12.7125 28.25 12.8125 28 12.8125Z" fill="#0030A8"/>
<path d="M27.9998 12.8123C27.7623 12.8123 27.5248 12.7248 27.3373 12.5373L24.8373 10.0373C24.4748 9.6748 24.4748 9.0748 24.8373 8.7123C25.1998 8.3498 25.7998 8.3498 26.1623 8.7123L28.6623 11.2123C29.0248 11.5748 29.0248 12.1748 28.6623 12.5373C28.4748 12.7248 28.2373 12.8123 27.9998 12.8123Z" fill="#0030A8"/>
</g>
<defs>
<filter id="filter0_d_738_746" x="-1" y="0" width="38" height="38" filterUnits="userSpaceOnUse" color-interpolation-filters="sRGB">
<feFlood flood-opacity="0" result="BackgroundImageFix"/>
<feColorMatrix in="SourceAlpha" type="matrix" values="0 0 0 0 0 0 0 0 0 0 0 0 0 0 0 0 0 0 127 0" result="hardAlpha"/>
<feOffset dy="4"/>
<feGaussianBlur stdDeviation="2"/>
<feComposite in2="hardAlpha" operator="out"/>
<feColorMatrix type="matrix" values="0 0 0 0 0 0 0 0 0 0 0 0 0 0 0 0 0 0 0.25 0"/>
<feBlend mode="normal" in2="BackgroundImageFix" result="effect1_dropShadow_738_746"/>
<feBlend mode="normal" in="SourceGraphic" in2="effect1_dropShadow_738_746" result="shape"/>
</filter>
</defs>
</svg>
