<svg width="18" height="16" viewBox="0 0 18 16" fill="none" xmlns="http://www.w3.org/2000/svg">
<path d="M6.5602 8.02257C5.81659 8.02257 5.22958 8.67486 5.22958 9.47064C5.22958 10.2665 5.82961 10.9188 6.5602 10.9188C7.3039 10.9188 7.89091 10.2665 7.89091 9.47064C7.90402 8.67486 7.30381 8.02257 6.5602 8.02257ZM11.3222 8.02257C10.5785 8.02257 9.99136 8.67486 9.99136 9.47064C9.99136 10.2665 10.5916 10.9188 11.3222 10.9188C12.0658 10.9188 12.6528 10.2665 12.6528 9.47064C12.6528 8.67486 12.0658 8.02257 11.3222 8.02257Z" fill="white"/>
<path d="M13.3536 14.5848L13.0273 14.9636C13.1222 15.0454 13.2443 15.0885 13.3695 15.0845L13.3536 14.5848ZM12.1581 12.7486C11.987 12.5318 11.6726 12.4949 11.4558 12.666C11.2391 12.8371 11.2021 13.1515 11.3732 13.3683L12.1581 12.7486ZM12.6267 12.2756L12.4528 11.8068C12.4462 11.8093 12.4396 11.8119 12.4331 11.8146L12.6267 12.2756ZM10.7351 12.8366L10.6511 12.3436L10.6429 12.3452L10.7351 12.8366ZM7.35607 12.8236L7.26129 13.3145L7.26432 13.3151L7.35607 12.8236ZM5.43827 12.2626L5.25604 12.7282L5.25652 12.7284L5.43827 12.2626ZM4.48579 11.819L4.20778 12.2346C4.21875 12.242 4.23001 12.2489 4.24153 12.2553L4.48579 11.819ZM4.36842 11.7537L4.64599 11.3379C4.62867 11.3263 4.61065 11.3158 4.59203 11.3065L4.36842 11.7537ZM4.31625 11.7147L4.6698 11.3611C4.63696 11.3283 4.5997 11.3002 4.5591 11.2776L4.31625 11.7147ZM6.62655 13.342C6.79762 13.1253 6.76058 12.8109 6.54381 12.6398C6.32704 12.4687 6.01264 12.5058 5.84156 12.7225L6.62655 13.342ZM4.64617 14.5848L4.63034 15.0845C4.75763 15.0886 4.88167 15.0439 4.97713 14.9596L4.64617 14.5848ZM1.38086 12.1322H0.880859C0.880859 12.1589 0.883005 12.1856 0.887276 12.212L1.38086 12.1322ZM3.25951 2.89341L2.95951 2.49341C2.88294 2.55083 2.82447 2.62903 2.79103 2.7187L3.25951 2.89341ZM6.92549 1.52355L7.42324 1.47614C7.3992 1.22369 7.18997 1.02922 6.93644 1.02367L6.92549 1.52355ZM6.55822 2.9409C6.5844 3.2158 6.82848 3.41743 7.10338 3.39124C7.37828 3.36506 7.5799 3.12099 7.55372 2.84609L6.55822 2.9409ZM10.3957 2.88197C10.3605 3.15586 10.554 3.40642 10.8279 3.4416C11.1018 3.47677 11.3523 3.28326 11.3875 3.00937L10.3957 2.88197ZM11.0742 1.52364L11.0633 1.02376C10.816 1.02918 10.6098 1.21461 10.5783 1.45994L11.0742 1.52364ZM14.7402 2.8935L15.2087 2.71878C15.1753 2.62912 15.1168 2.55093 15.0402 2.49351L14.7402 2.8935ZM16.619 12.1322L17.1125 12.212C17.1168 12.1856 17.119 12.1589 17.119 12.1322H16.619ZM7.89091 9.47064L7.39091 9.46241V9.47064H7.89091ZM13.3536 14.5848C13.68 14.2059 13.68 14.206 13.68 14.206C13.68 14.206 13.68 14.206 13.68 14.206C13.6799 14.2059 13.6799 14.2059 13.6798 14.2059C13.6797 14.2058 13.6796 14.2056 13.6793 14.2054C13.6788 14.205 13.678 14.2043 13.677 14.2034C13.6749 14.2015 13.6716 14.1988 13.6674 14.1951C13.6588 14.1877 13.6461 14.1767 13.6298 14.1624C13.597 14.1339 13.5496 14.0925 13.4914 14.0411C13.3748 13.9382 13.2156 13.7962 13.0446 13.6392C12.6916 13.3151 12.3249 12.9599 12.1581 12.7486L11.3732 13.3683C11.5979 13.6527 12.0251 14.0607 12.3683 14.3758C12.5454 14.5385 12.7098 14.6851 12.8298 14.791C12.8898 14.8439 12.939 14.8869 12.9732 14.9167C12.9903 14.9316 13.0037 14.9432 13.0129 14.9511C13.0175 14.9551 13.021 14.9582 13.0234 14.9603C13.0247 14.9613 13.0256 14.9621 13.0262 14.9627C13.0266 14.963 13.0268 14.9632 13.027 14.9634C13.0271 14.9634 13.0272 14.9635 13.0272 14.9635C13.0273 14.9636 13.0273 14.9636 13.0273 14.9636C13.0273 14.9636 13.0273 14.9636 13.3536 14.5848ZM13.8521 11.0883C13.3488 11.4198 12.8739 11.6505 12.4528 11.8068L12.8007 12.7443C13.2928 12.5617 13.8355 12.2966 14.4021 11.9235L13.8521 11.0883ZM12.4331 11.8146C11.8135 12.0749 11.224 12.2461 10.6511 12.3437L10.819 13.3295C11.4724 13.2182 12.1354 13.0244 12.8204 12.7365L12.4331 11.8146ZM10.6429 12.3452C9.46242 12.5665 8.37782 12.5057 7.44782 12.3321L7.26432 13.3151C8.29119 13.5068 9.50272 13.5764 10.8272 13.3281L10.6429 12.3452ZM7.45086 12.3327C6.74363 12.1961 6.13395 11.9974 5.62002 11.7968L5.25652 12.7284C5.81225 12.9453 6.48111 13.1639 7.26129 13.3145L7.45086 12.3327ZM5.6205 11.797C5.33413 11.6849 5.03026 11.5508 4.73005 11.3828L4.24153 12.2553C4.59378 12.4525 4.9422 12.6054 5.25604 12.7282L5.6205 11.797ZM4.76379 11.4034C4.71427 11.3703 4.66729 11.3475 4.65084 11.3392C4.62802 11.3278 4.63574 11.331 4.64599 11.3379L4.09085 12.1696C4.14025 12.2026 4.18713 12.2254 4.20343 12.2336C4.22611 12.2449 4.21824 12.2416 4.20778 12.2346L4.76379 11.4034ZM4.59203 11.3065C4.61033 11.3157 4.63011 11.3281 4.64928 11.3434C4.6657 11.3565 4.6772 11.3685 4.6698 11.3611L3.9627 12.0682C3.98687 12.0924 4.04564 12.1514 4.14482 12.201L4.59203 11.3065ZM4.5591 11.2776C4.45057 11.2173 4.36731 11.1667 4.31254 11.1321C4.28518 11.1148 4.26498 11.1016 4.25235 11.0932C4.24604 11.089 4.24163 11.086 4.23916 11.0843C4.23793 11.0834 4.23718 11.0829 4.23693 11.0827C4.23681 11.0827 4.2368 11.0827 4.23693 11.0827C4.23699 11.0828 4.23708 11.0828 4.2372 11.0829C4.23726 11.083 4.23733 11.083 4.23741 11.0831C4.23745 11.0831 4.23749 11.0831 4.23753 11.0832C4.23755 11.0832 4.23759 11.0832 4.2376 11.0832C4.23763 11.0832 4.23767 11.0833 3.95095 11.4929C3.66424 11.9025 3.66428 11.9025 3.66431 11.9026C3.66432 11.9026 3.66436 11.9026 3.66439 11.9026C3.66444 11.9027 3.66449 11.9027 3.66454 11.9027C3.66465 11.9028 3.66477 11.9029 3.66489 11.903C3.66515 11.9031 3.66543 11.9033 3.66574 11.9036C3.66637 11.904 3.66713 11.9045 3.66802 11.9051C3.6698 11.9064 3.67208 11.9079 3.67488 11.9099C3.68046 11.9137 3.68808 11.9188 3.69767 11.9252C3.71684 11.938 3.74394 11.9557 3.77854 11.9776C3.84772 12.0213 3.94711 12.0816 4.0734 12.1517L4.5591 11.2776ZM5.84156 12.7225C5.67305 12.9361 5.3043 13.299 4.95147 13.6296C4.7803 13.79 4.62087 13.9355 4.50416 14.0408C4.44586 14.0935 4.39836 14.136 4.36555 14.1653C4.34914 14.1799 4.33642 14.1912 4.32787 14.1988C4.32359 14.2026 4.32035 14.2055 4.31822 14.2073C4.31716 14.2083 4.31637 14.209 4.31586 14.2094C4.31561 14.2097 4.31543 14.2098 4.31532 14.2099C4.31526 14.21 4.31522 14.21 4.3152 14.21C4.31519 14.21 4.31519 14.21 4.31519 14.21C4.31519 14.21 4.3152 14.21 4.64617 14.5848C4.97713 14.9596 4.97715 14.9596 4.97717 14.9595C4.97718 14.9595 4.97721 14.9595 4.97724 14.9595C4.97729 14.9594 4.97736 14.9594 4.97745 14.9593C4.97763 14.9591 4.97788 14.9589 4.97821 14.9586C4.97885 14.9581 4.97979 14.9572 4.981 14.9562C4.98342 14.954 4.98695 14.9509 4.99153 14.9468C5.0007 14.9387 5.01406 14.9268 5.03114 14.9116C5.06529 14.8811 5.11433 14.8372 5.17432 14.7831C5.29419 14.6748 5.45837 14.5251 5.63524 14.3593C5.97852 14.0377 6.40372 13.6244 6.62655 13.342L5.84156 12.7225ZM4.66199 14.085C3.3792 14.0444 2.70048 13.5102 2.3308 13.0223C2.13971 12.7701 2.02353 12.5191 1.9556 12.332C1.92181 12.2389 1.90055 12.1632 1.88817 12.1133C1.88199 12.0884 1.87807 12.0702 1.87593 12.0596C1.87487 12.0543 1.87425 12.051 1.87402 12.0497C1.8739 12.0491 1.87389 12.049 1.87396 12.0494C1.874 12.0496 1.87406 12.05 1.87414 12.0504C1.87418 12.0507 1.87422 12.051 1.87427 12.0513C1.8743 12.0514 1.87434 12.0517 1.87435 12.0518C1.8744 12.052 1.87444 12.0523 1.38086 12.1322C0.887276 12.212 0.887324 12.2123 0.887374 12.2126C0.887392 12.2127 0.887443 12.213 0.887481 12.2133C0.887555 12.2137 0.887636 12.2142 0.887724 12.2147C0.887901 12.2158 0.888104 12.217 0.888335 12.2183C0.888797 12.221 0.889372 12.2243 0.890068 12.2282C0.89146 12.2358 0.893339 12.2458 0.895773 12.2578C0.900639 12.2819 0.907741 12.3144 0.917641 12.3543C0.937413 12.4339 0.96852 12.5434 1.0156 12.6731C1.1094 12.9316 1.26892 13.2767 1.53374 13.6262C2.07589 14.3417 3.02983 15.0339 4.63034 15.0845L4.66199 14.085ZM1.88086 12.1322C1.88086 10.0952 2.33808 7.83399 2.80372 6.0647C3.03556 5.18377 3.26744 4.43237 3.44115 3.90179C3.52797 3.63661 3.60017 3.42689 3.65043 3.28407C3.67556 3.21267 3.6952 3.15802 3.70843 3.12154C3.71505 3.10331 3.72007 3.08961 3.72337 3.08065C3.72501 3.07617 3.72624 3.07286 3.72701 3.07077C3.7274 3.06972 3.72768 3.06897 3.72784 3.06853C3.72793 3.0683 3.72798 3.06816 3.72801 3.06809C3.72802 3.06805 3.72802 3.06806 3.72802 3.06804C3.72801 3.06807 3.728 3.06811 3.25951 2.89341C2.79103 2.7187 2.791 2.71879 2.79096 2.71889C2.79094 2.71895 2.79089 2.71907 2.79085 2.71919C2.79076 2.71942 2.79064 2.71974 2.7905 2.72013C2.79021 2.72091 2.7898 2.72199 2.78929 2.72338C2.78826 2.72616 2.78679 2.73015 2.78488 2.73532C2.78107 2.74568 2.77554 2.76079 2.7684 2.78048C2.75411 2.81985 2.73339 2.87753 2.70715 2.95209C2.65467 3.10119 2.5801 3.31787 2.49079 3.59063C2.31226 4.13592 2.07447 4.90653 1.83665 5.81018C1.36297 7.61004 0.880859 9.96816 0.880859 12.1322H1.88086ZM3.55952 3.2934C4.4353 2.63656 5.28695 2.31923 5.91553 2.16584C6.22987 2.08914 6.48764 2.05365 6.66325 2.03729C6.75099 2.02911 6.81799 2.02574 6.86102 2.02436C6.88252 2.02367 6.89801 2.02348 6.90708 2.02345C6.91161 2.02343 6.91453 2.02344 6.91579 2.02346C6.91642 2.02346 6.91664 2.02347 6.91643 2.02346C6.91633 2.02346 6.91612 2.02346 6.91581 2.02345C6.91565 2.02345 6.91547 2.02345 6.91526 2.02344C6.91515 2.02344 6.91497 2.02344 6.91492 2.02343C6.91474 2.02343 6.91454 2.02343 6.92549 1.52355C6.93644 1.02367 6.93624 1.02366 6.93603 1.02366C6.93595 1.02366 6.93573 1.02365 6.93557 1.02365C6.93525 1.02364 6.9349 1.02363 6.93453 1.02363C6.93378 1.02361 6.93292 1.0236 6.93195 1.02358C6.93001 1.02355 6.92764 1.02352 6.92483 1.0235C6.91921 1.02345 6.91187 1.02342 6.90285 1.02345C6.88482 1.02353 6.86007 1.02388 6.82903 1.02487C6.76698 1.02686 6.67967 1.03143 6.57049 1.0416C6.35227 1.06193 6.04579 1.10472 5.67847 1.19435C4.94371 1.37364 3.96238 1.74124 2.95951 2.49341L3.55952 3.2934ZM6.42775 1.57095L6.55822 2.9409L7.55372 2.84609L7.42324 1.47614L6.42775 1.57095ZM11.3875 3.00937L11.5702 1.58733L10.5783 1.45994L10.3957 2.88197L11.3875 3.00937ZM11.0742 1.52364C11.0852 2.02351 11.085 2.02352 11.0848 2.02352C11.0848 2.02352 11.0846 2.02353 11.0845 2.02353C11.0843 2.02353 11.0841 2.02354 11.0839 2.02354C11.0836 2.02355 11.0834 2.02355 11.0833 2.02355C11.0831 2.02355 11.0833 2.02355 11.084 2.02355C11.0852 2.02353 11.0881 2.02352 11.0927 2.02353C11.1017 2.02357 11.1172 2.02376 11.1387 2.02445C11.1817 2.02582 11.2487 2.0292 11.3365 2.03737C11.5121 2.05372 11.7699 2.0892 12.0842 2.1659C12.7128 2.31927 13.5644 2.6366 14.4402 3.29349L15.0402 2.49351C14.0373 1.74129 13.056 1.37369 12.3212 1.1944C11.9539 1.10478 11.6474 1.062 11.4292 1.04168C11.32 1.03151 11.2327 1.02694 11.1707 1.02496C11.1396 1.02396 11.1149 1.02362 11.0968 1.02354C11.0878 1.02351 11.0805 1.02354 11.0749 1.02359C11.0721 1.02361 11.0697 1.02364 11.0677 1.02367C11.0668 1.02369 11.0659 1.0237 11.0652 1.02372C11.0648 1.02372 11.0644 1.02373 11.0641 1.02374C11.064 1.02374 11.0637 1.02375 11.0637 1.02375C11.0635 1.02375 11.0633 1.02376 11.0742 1.52364ZM14.7402 2.8935C14.2717 3.06821 14.2717 3.06817 14.2717 3.06814C14.2717 3.06816 14.2717 3.06815 14.2717 3.06819C14.2717 3.06826 14.2718 3.0684 14.2719 3.06863C14.272 3.06907 14.2723 3.06982 14.2727 3.07087C14.2735 3.07296 14.2747 3.07627 14.2764 3.08075C14.2797 3.08971 14.2847 3.10341 14.2913 3.12164C14.3045 3.15812 14.3242 3.21277 14.3493 3.28417C14.3996 3.42698 14.4718 3.6367 14.5586 3.90187C14.7323 4.43245 14.9642 5.18384 15.196 6.06475C15.6617 7.83401 16.119 10.0952 16.119 12.1322H17.119C17.119 9.96816 16.6368 7.61006 16.1631 5.81022C15.9253 4.90658 15.6875 4.13598 15.5089 3.5907C15.4196 3.31795 15.3451 3.10126 15.2926 2.95217C15.2663 2.87761 15.2456 2.81992 15.2313 2.78055C15.2242 2.76087 15.2186 2.74576 15.2148 2.7354C15.2129 2.73023 15.2115 2.72624 15.2104 2.72346C15.2099 2.72207 15.2095 2.72099 15.2092 2.72021C15.2091 2.71982 15.209 2.7195 15.2089 2.71926C15.2088 2.71915 15.2088 2.71903 15.2088 2.71897C15.2087 2.71887 15.2087 2.71878 14.7402 2.8935ZM16.619 12.1322C16.1254 12.0523 16.1254 12.052 16.1255 12.0517C16.1255 12.0517 16.1255 12.0514 16.1255 12.0513C16.1256 12.0509 16.1256 12.0507 16.1257 12.0504C16.1258 12.0499 16.1258 12.0496 16.1259 12.0494C16.1259 12.0489 16.1259 12.0491 16.1258 12.0497C16.1256 12.051 16.1249 12.0543 16.1239 12.0596C16.1217 12.0701 16.1178 12.0884 16.1116 12.1133C16.0993 12.1632 16.078 12.2388 16.0442 12.3319C15.9763 12.5191 15.8601 12.7701 15.669 13.0223C15.2993 13.5102 14.6206 14.0444 13.3378 14.085L13.3695 15.0845C14.9699 15.0339 15.9239 14.3417 16.466 13.6262C16.7309 13.2767 16.8904 12.9316 16.9842 12.6731C17.0313 12.5434 17.0624 12.4339 17.0822 12.3543C17.0921 12.3144 17.0992 12.2819 17.104 12.2578C17.1065 12.2458 17.1083 12.2358 17.1097 12.2282C17.1104 12.2243 17.111 12.2211 17.1115 12.2184C17.1117 12.217 17.1119 12.2158 17.1121 12.2147C17.1122 12.2142 17.1123 12.2137 17.1123 12.2133C17.1124 12.213 17.1124 12.2127 17.1124 12.2126C17.1125 12.2123 17.1125 12.212 16.619 12.1322ZM6.5602 7.52257C5.49858 7.52257 4.72958 8.44252 4.72958 9.47064H5.72958C5.72958 8.90719 6.13459 8.52257 6.5602 8.52257V7.52257ZM4.72958 9.47064C4.72958 10.5021 5.51462 11.4188 6.5602 11.4188V10.4188C6.14459 10.4188 5.72958 10.0309 5.72958 9.47064H4.72958ZM6.5602 11.4188C7.6219 11.4188 8.39091 10.4989 8.39091 9.47064H7.39091C7.39091 10.0342 6.9859 10.4188 6.5602 10.4188V11.4188ZM8.39084 9.47888C8.40801 8.4364 7.61474 7.52257 6.5602 7.52257V8.52257C6.99288 8.52257 7.40002 8.91332 7.39097 9.46241L8.39084 9.47888ZM11.3222 7.52257C10.2605 7.52257 9.49136 8.44245 9.49136 9.47064H10.4914C10.4914 8.90726 10.8964 8.52257 11.3222 8.52257V7.52257ZM9.49136 9.47064C9.49136 10.5022 10.2767 11.4188 11.3222 11.4188V10.4188C10.9065 10.4188 10.4914 10.0308 10.4914 9.47064H9.49136ZM11.3222 11.4188C12.3838 11.4188 13.1528 10.4988 13.1528 9.47064H12.1528C12.1528 10.0342 11.7477 10.4188 11.3222 10.4188V11.4188ZM13.1528 9.47064C13.1528 8.44252 12.3838 7.52257 11.3222 7.52257V8.52257C11.7478 8.52257 12.1528 8.90719 12.1528 9.47064H13.1528ZM4.88556 4.6836C6.45987 3.82502 7.74646 3.42192 9.00244 3.4213C10.2581 3.42068 11.5428 3.82233 13.1133 4.6831L13.594 3.80617C11.9402 2.89978 10.4864 2.42056 9.00194 2.4213C7.51783 2.42203 6.06281 2.90251 4.40677 3.80567L4.88556 4.6836Z" fill="#F4F7FF"/>
</svg>
