<svg width="36" height="37" viewBox="0 0 36 37" fill="none" xmlns="http://www.w3.org/2000/svg">
<g filter="url(#filter0_d_738_745)">
<path d="M19.3125 20.3123H16.9625C15.3 20.3123 13.9375 18.9123 13.9375 17.1873C13.9375 16.6748 14.3625 16.2498 14.875 16.2498C15.3875 16.2498 15.8125 16.6748 15.8125 17.1873C15.8125 17.8748 16.325 18.4373 16.9625 18.4373H19.3125C19.8 18.4373 20.1875 17.9998 20.1875 17.4623C20.1875 16.7873 20 16.6873 19.575 16.5373L15.8125 15.2248C15.0125 14.9498 13.9375 14.3623 13.9375 12.5248C13.9375 10.9623 15.175 9.6748 16.6875 9.6748H19.0375C20.7 9.6748 22.0625 11.0748 22.0625 12.7998C22.0625 13.3123 21.6375 13.7373 21.125 13.7373C20.6125 13.7373 20.1875 13.3123 20.1875 12.7998C20.1875 12.1123 19.675 11.5498 19.0375 11.5498H16.6875C16.2 11.5498 15.8125 11.9873 15.8125 12.5248C15.8125 13.1998 16 13.2998 16.425 13.4498L20.1875 14.7623C20.9875 15.0373 22.0625 15.6248 22.0625 17.4623C22.0625 19.0373 20.825 20.3123 19.3125 20.3123Z" fill="#0030A8"/>
<path d="M18 21.5625C17.4875 21.5625 17.0625 21.1375 17.0625 20.625V9.375C17.0625 8.8625 17.4875 8.4375 18 8.4375C18.5125 8.4375 18.9375 8.8625 18.9375 9.375V20.625C18.9375 21.1375 18.5125 21.5625 18 21.5625Z" fill="#0030A8"/>
<path d="M18 28.4375C10.5875 28.4375 4.5625 22.4125 4.5625 15C4.5625 7.5875 10.5875 1.5625 18 1.5625C18.5125 1.5625 18.9375 1.9875 18.9375 2.5C18.9375 3.0125 18.5125 3.4375 18 3.4375C11.625 3.4375 6.4375 8.625 6.4375 15C6.4375 21.375 11.625 26.5625 18 26.5625C24.375 26.5625 29.5625 21.375 29.5625 15C29.5625 14.4875 29.9875 14.0625 30.5 14.0625C31.0125 14.0625 31.4375 14.4875 31.4375 15C31.4375 22.4125 25.4125 28.4375 18 28.4375Z" fill="#0030A8"/>
<path d="M29.25 9.6875H24.25C23.7375 9.6875 23.3125 9.2625 23.3125 8.75V3.75C23.3125 3.2375 23.7375 2.8125 24.25 2.8125C24.7625 2.8125 25.1875 3.2375 25.1875 3.75V7.8125H29.25C29.7625 7.8125 30.1875 8.2375 30.1875 8.75C30.1875 9.2625 29.7625 9.6875 29.25 9.6875Z" fill="#0030A8"/>
<path d="M24.2498 9.6873C24.0123 9.6873 23.7748 9.5998 23.5873 9.4123C23.2248 9.0498 23.2248 8.4498 23.5873 8.08731L29.8373 1.8373C30.1998 1.4748 30.7998 1.4748 31.1623 1.8373C31.5248 2.1998 31.5248 2.7998 31.1623 3.1623L24.9123 9.4123C24.7248 9.5998 24.4873 9.6873 24.2498 9.6873Z" fill="#0030A8"/>
</g>
<defs>
<filter id="filter0_d_738_745" x="-1" y="0" width="38" height="38" filterUnits="userSpaceOnUse" color-interpolation-filters="sRGB">
<feFlood flood-opacity="0" result="BackgroundImageFix"/>
<feColorMatrix in="SourceAlpha" type="matrix" values="0 0 0 0 0 0 0 0 0 0 0 0 0 0 0 0 0 0 127 0" result="hardAlpha"/>
<feOffset dy="4"/>
<feGaussianBlur stdDeviation="2"/>
<feComposite in2="hardAlpha" operator="out"/>
<feColorMatrix type="matrix" values="0 0 0 0 0 0 0 0 0 0 0 0 0 0 0 0 0 0 0.25 0"/>
<feBlend mode="normal" in2="BackgroundImageFix" result="effect1_dropShadow_738_745"/>
<feBlend mode="normal" in="SourceGraphic" in2="effect1_dropShadow_738_745" result="shape"/>
</filter>
</defs>
</svg>
