<svg width="36" height="37" viewBox="0 0 36 37" fill="none" xmlns="http://www.w3.org/2000/svg">
<g filter="url(#filter0_d_739_821)">
<path d="M11.5996 23.6246C11.0871 23.6246 10.6621 23.1996 10.6621 22.6871V20.0996C10.6621 19.5871 11.0871 19.1621 11.5996 19.1621C12.1121 19.1621 12.5371 19.5871 12.5371 20.0996V22.6871C12.5371 23.2121 12.1121 23.6246 11.5996 23.6246Z" fill="#0030A8"/>
<path d="M18 23.625C17.4875 23.625 17.0625 23.2 17.0625 22.6875V17.5C17.0625 16.9875 17.4875 16.5625 18 16.5625C18.5125 16.5625 18.9375 16.9875 18.9375 17.5V22.6875C18.9375 23.2125 18.5125 23.625 18 23.625Z" fill="#0030A8"/>
<path d="M24.4004 23.6246C23.8879 23.6246 23.4629 23.1996 23.4629 22.6871V14.9121C23.4629 14.3996 23.8879 13.9746 24.4004 13.9746C24.9129 13.9746 25.3379 14.3996 25.3379 14.9121V22.6871C25.3379 23.2121 24.9254 23.6246 24.4004 23.6246Z" fill="#0030A8"/>
<path d="M11.6 16.4748C11.175 16.4748 10.8 16.1873 10.6875 15.7623C10.5625 15.2623 10.8625 14.7498 11.375 14.6248C15.975 13.4748 20.025 10.9623 23.1125 7.37478L23.6875 6.69978C24.025 6.31228 24.6125 6.26228 25.0125 6.59978C25.4 6.93728 25.45 7.52478 25.1125 7.92478L24.5375 8.59978C21.2 12.4998 16.8 15.2123 11.825 16.4498C11.75 16.4748 11.675 16.4748 11.6 16.4748Z" fill="#0030A8"/>
<path d="M24.3998 11.9C23.8873 11.9 23.4623 11.475 23.4623 10.9625V8.25H20.7373C20.2248 8.25 19.7998 7.825 19.7998 7.3125C19.7998 6.8 20.2248 6.375 20.7373 6.375H24.3998C24.9123 6.375 25.3373 6.8 25.3373 7.3125V10.975C25.3373 11.4875 24.9248 11.9 24.3998 11.9Z" fill="#0030A8"/>
<path d="M21.75 28.4375H14.25C7.4625 28.4375 4.5625 25.5375 4.5625 18.75V11.25C4.5625 4.4625 7.4625 1.5625 14.25 1.5625H21.75C28.5375 1.5625 31.4375 4.4625 31.4375 11.25V18.75C31.4375 25.5375 28.5375 28.4375 21.75 28.4375ZM14.25 3.4375C8.4875 3.4375 6.4375 5.4875 6.4375 11.25V18.75C6.4375 24.5125 8.4875 26.5625 14.25 26.5625H21.75C27.5125 26.5625 29.5625 24.5125 29.5625 18.75V11.25C29.5625 5.4875 27.5125 3.4375 21.75 3.4375H14.25Z" fill="#0030A8"/>
</g>
<defs>
<filter id="filter0_d_739_821" x="-1" y="0" width="38" height="38" filterUnits="userSpaceOnUse" color-interpolation-filters="sRGB">
<feFlood flood-opacity="0" result="BackgroundImageFix"/>
<feColorMatrix in="SourceAlpha" type="matrix" values="0 0 0 0 0 0 0 0 0 0 0 0 0 0 0 0 0 0 127 0" result="hardAlpha"/>
<feOffset dy="4"/>
<feGaussianBlur stdDeviation="2"/>
<feComposite in2="hardAlpha" operator="out"/>
<feColorMatrix type="matrix" values="0 0 0 0 0 0 0 0 0 0 0 0 0 0 0 0 0 0 0.25 0"/>
<feBlend mode="normal" in2="BackgroundImageFix" result="effect1_dropShadow_739_821"/>
<feBlend mode="normal" in="SourceGraphic" in2="effect1_dropShadow_739_821" result="shape"/>
</filter>
</defs>
</svg>
