<svg width="18" height="16" viewBox="0 0 18 16" fill="none" xmlns="http://www.w3.org/2000/svg">
<path d="M16.5954 1.52344L17.0943 1.49036C17.081 1.28979 16.9489 1.11668 16.759 1.05094C16.569 0.985193 16.3582 1.03959 16.2237 1.18903L16.5954 1.52344ZM16.0087 4.74401C16.0087 4.46787 15.7848 4.24401 15.5087 4.24401C15.2325 4.24401 15.0087 4.46787 15.0087 4.74401H16.0087ZM8.99991 5.71391V6.21391H9.49991V5.71391H8.99991ZM2.46762 1.52344L2.93587 1.34811C2.8661 1.16178 2.69249 1.03454 2.49379 1.02412C2.2951 1.01371 2.10914 1.12209 2.02026 1.30011L2.46762 1.52344ZM6.71419 11.4282L7.06802 11.7815C7.19038 11.6589 7.24061 11.4818 7.2008 11.3132C7.16098 11.1447 7.03679 11.0088 6.87253 10.9539L6.71419 11.4282ZM1.38086 13.4962V12.9962C1.16059 12.9962 0.96627 13.1404 0.902365 13.3512C0.83846 13.562 0.920026 13.7897 1.10321 13.9121L1.38086 13.4962ZM14.6772 2.5829L14.3064 2.91824L14.4865 3.11749L14.7521 3.07726L14.6772 2.5829ZM16.0965 1.55651C16.1528 2.40532 16.1013 2.92641 15.961 3.32168C15.8245 3.70651 15.5865 4.02168 15.1627 4.42773L15.8546 5.14976C16.3289 4.69528 16.6922 4.25174 16.9035 3.65601C17.1111 3.07073 17.1539 2.38942 17.0943 1.49036L16.0965 1.55651ZM16.0087 5.53703V4.78874H15.0087V5.53703H16.0087ZM16.0087 4.78874V4.74401H15.0087V4.78874H16.0087ZM8.49991 4.95201V5.71391H9.49991V4.95201H8.49991ZM12.2931 1.02344C10.1662 1.02344 8.49991 2.87393 8.49991 4.95201H9.49991C9.49991 3.37392 10.7694 2.02344 12.2931 2.02344V1.02344ZM15.0087 5.53703C15.0087 10.2676 11.0365 14.3568 6.33324 14.3568V15.3568C11.6083 15.3568 16.0087 10.8002 16.0087 5.53703H15.0087ZM1.99936 1.69876C2.59449 3.28822 4.82412 6.21391 8.99991 6.21391V5.21391C5.35106 5.21391 3.4275 2.66115 2.93587 1.34811L1.99936 1.69876ZM2.02026 1.30011C0.886408 3.57132 0.688754 5.79406 1.4806 7.68901C2.27245 9.58398 4.01299 11.0535 6.55586 11.9025L6.87253 10.9539C4.525 10.1702 3.05549 8.86425 2.40328 7.30345C1.75105 5.74261 1.87531 3.82929 2.91497 1.74677L2.02026 1.30011ZM6.36036 11.0749C5.70706 11.7292 3.82744 12.9962 1.38086 12.9962V13.9962C4.1507 13.9962 6.27234 12.5784 7.06802 11.7815L6.36036 11.0749ZM15.0481 2.24756C14.369 1.49654 13.386 1.02344 12.2931 1.02344V2.02344C13.0913 2.02344 13.8087 2.36785 14.3064 2.91824L15.0481 2.24756ZM14.7521 3.07726C15.5694 2.95349 16.3679 2.52402 16.9672 1.85784L16.2237 1.18903C15.7732 1.68982 15.1818 2.00078 14.6024 2.08854L14.7521 3.07726ZM1.10321 13.9121C2.8416 15.0728 4.51515 15.3568 6.33324 15.3568V14.3568C4.63915 14.3568 3.18039 14.0966 1.65851 13.0804L1.10321 13.9121Z" fill="#F4F7FF"/>
</svg>
